HIERARCHY
ROOT joint_Root
{
	OFFSET 0.0 0.0 0.0
	CHANNELS 6 Xposition Yposition Zposition Zrotation Xrotation Yrotation 
	JOINT Hips
	{
		OFFSET 4.5925 91.4895 -427.239
		CHANNELS 6 Xposition Yposition Zposition Zrotation Xrotation Yrotation 
		JOINT Spine
		{
			OFFSET 15.7357 0.0 0.0
			CHANNELS 6 Xposition Yposition Zposition Zrotation Xrotation Yrotation 
			JOINT Chest
			{
				OFFSET 8.98455 -0.406207 0.0
				CHANNELS 6 Xposition Yposition Zposition Zrotation Xrotation Yrotation 
				JOINT Neck
				{
					OFFSET 16.3773 0.0 0.0
					CHANNELS 6 Xposition Yposition Zposition Zrotation Xrotation Yrotation 
					JOINT Head
					{
						OFFSET 6.45672 0.0 0.0
						CHANNELS 6 Xposition Yposition Zposition Zrotation Xrotation Yrotation 
						End Site
						{
							OFFSET 0.0 0.0 0.0
						}
					}
				}
				JOINT Shoulder_L
				{
					OFFSET 12.9942 -0.242716 4.98039
					CHANNELS 6 Xposition Yposition Zposition Zrotation Xrotation Yrotation 
					JOINT UpperArm_L
					{
						OFFSET 5.34809 0.0 0.0
						CHANNELS 6 Xposition Yposition Zposition Zrotation Xrotation Yrotation 
						JOINT LowerArm_L
						{
							OFFSET 24.3286 1.87007e-05 0.0
							CHANNELS 6 Xposition Yposition Zposition Zrotation Xrotation Yrotation 
							JOINT Hand_L
							{
								OFFSET 22.2916 0.0 0.0
								CHANNELS 6 Xposition Yposition Zposition Zrotation Xrotation Yrotation 
								End Site
								{
									OFFSET 0.0 0.0 0.0
								}
							}
						}
					}
				}
				JOINT Shoulder_R
				{
					OFFSET 12.9945 -0.242716 -4.98039
					CHANNELS 6 Xposition Yposition Zposition Zrotation Xrotation Yrotation 
					JOINT UpperArm_R
					{
						OFFSET -5.34813 0.0 0.0
						CHANNELS 6 Xposition Yposition Zposition Zrotation Xrotation Yrotation 
						JOINT LowerArm_R
						{
							OFFSET -24.3289 0.000322201 0.0
							CHANNELS 6 Xposition Yposition Zposition Zrotation Xrotation Yrotation 
							JOINT Hand_R
							{
								OFFSET -22.2915 -0.000108084 0.0
								CHANNELS 6 Xposition Yposition Zposition Zrotation Xrotation Yrotation 
								End Site
								{
									OFFSET 0.0 0.0 0.0
								}
							}
						}
					}
				}
			}
		}
		JOINT UpperLeg_L
		{
			OFFSET -2.19248 -6.46944 0.0
			CHANNELS 6 Xposition Yposition Zposition Zrotation Xrotation Yrotation 
			JOINT LowerLeg_L
			{
				OFFSET 39.0811 0.0 -1.23785e-05
				CHANNELS 6 Xposition Yposition Zposition Zrotation Xrotation Yrotation 
				JOINT Foot_L
				{
					OFFSET 40.9854 0.0 -1.26872e-05
					CHANNELS 6 Xposition Yposition Zposition Zrotation Xrotation Yrotation 
					JOINT Toes_L
					{
						OFFSET 11.7543 0.0 0.0
						CHANNELS 6 Xposition Yposition Zposition Zrotation Xrotation Yrotation 
						End Site
						{
							OFFSET 0.0 0.0 0.0
						}
					}
				}
			}
		}
		JOINT UpperLeg_R
		{
			OFFSET -2.19251 6.46944 0.0
			CHANNELS 6 Xposition Yposition Zposition Zrotation Xrotation Yrotation 
			JOINT LowerLeg_R
			{
				OFFSET -39.0811 -0.00228153 -0.0401928
				CHANNELS 6 Xposition Yposition Zposition Zrotation Xrotation Yrotation 
				JOINT Foot_R
				{
					OFFSET -40.9854 0.0 0.0
					CHANNELS 6 Xposition Yposition Zposition Zrotation Xrotation Yrotation 
					JOINT Toes_R
					{
						OFFSET -11.7543 0.0 0.0
						CHANNELS 6 Xposition Yposition Zposition Zrotation Xrotation Yrotation 
						End Site
						{
							OFFSET 0.0 0.0 0.0
						}
					}
				}
			}
		}
	}
}
MOTION
Frames:	4
Frame Time:	0.0333333
0.000000 0.000000 0.000000 0.000000 0.000000 -0.000000 -3.887960 90.211900 3.208350 90.985300 0.890701 10.563800 15.735700 0.000005 -0.000001 80.058800 83.450500 -77.897500 8.984550 -0.406207 -0.000000 5.186790 -2.305160 4.422540 16.377300 -0.000001 -0.000001 22.447200 -10.594600 4.234760 6.456720 -0.000001 -0.000000 12.286500 -13.635500 15.347300 12.994200 -0.242716 4.980390 -88.336000 -3.869940 -66.711700 5.348090 -0.000007 -0.000001 -67.147400 -49.748800 -91.873500 24.328600 0.000019 0.000005 16.724500 10.082300 -59.774500 22.291600 -0.000001 0.000005 15.069600 5.331560 -0.831075 12.994500 -0.242716 -4.980390 87.949300 10.687900 -79.072200 -5.348130 -0.000001 -0.000004 -58.743000 32.509800 -10.604900 -24.328900 0.000322 -0.000009 1.386350 3.997420 -19.158500 -22.291500 -0.000108 -0.000004 12.153800 5.400540 -2.954950 -2.192480 -6.469440 -0.000000 -173.700000 -10.064000 3.857110 39.081100 -0.000007 -0.000012 -0.249641 0.436720 29.753900 40.985400 -0.000006 -0.000013 -0.850504 9.048860 -72.666800 11.754300 -0.000000 0.000003 -0.000172 -0.001629 -16.639300 -2.192510 6.469440 -0.000001 172.471000 22.294800 -173.530000 -39.081100 -0.002282 -0.040193 -0.255306 0.447395 30.029600 -40.985400 0.000008 0.000006 4.463970 11.837700 -75.404300 -11.754300 -0.000006 -0.000006 -0.001080 -0.016538 -17.245700
0.000000 0.000000 0.000000 0.000000 0.000000 -0.000000 -3.867530 90.210600 3.111350 91.054700 0.931641 10.730800 15.735700 0.000005 -0.000001 80.304100 83.254300 -78.131400 8.984550 -0.406207 -0.000000 5.583670 -2.308100 4.453560 16.377300 -0.000001 -0.000001 22.766000 -10.614200 4.143550 6.456720 -0.000001 -0.000000 12.423400 -13.539800 15.482100 12.994200 -0.242716 4.980390 -88.367000 -3.792820 -66.684600 5.348090 -0.000007 -0.000001 -67.064500 -49.662600 -91.785200 24.328600 0.000019 0.000005 16.809500 10.160400 -59.717900 22.291600 -0.000001 0.000005 15.037900 5.331700 -0.835162 12.994500 -0.242716 -4.980390 87.928300 10.764000 -79.038100 -5.348130 -0.000001 -0.000004 -58.954000 32.952100 -10.219400 -24.328900 0.000322 -0.000009 1.354640 3.923620 -19.078400 -22.291500 -0.000108 -0.000004 12.038900 5.400770 -2.962300 -2.192480 -6.469440 -0.000000 -173.758000 -10.100600 3.937960 39.081100 -0.000007 -0.000012 -0.244630 0.427219 29.796400 40.985400 -0.000006 -0.000013 -0.806696 9.109680 -72.622700 11.754300 -0.000000 0.000003 -0.000164 -0.001570 -16.637100 -2.192510 6.469440 -0.000001 172.367000 22.227900 -173.489000 -39.081100 -0.002282 -0.040193 -0.257351 0.448672 30.154500 -40.985400 0.000008 0.000006 4.447590 11.750100 -75.395100 -11.754300 -0.000006 -0.000006 -0.000965 -0.014914 -17.179700
0.000000 0.000000 0.000000 0.000000 0.000000 -0.000000 -3.865930 90.221000 2.997330 91.054400 0.995722 10.801100 15.735700 0.000005 -0.000001 80.411700 83.070500 -78.199100 8.984550 -0.406207 -0.000000 5.952240 -2.337350 4.542280 16.377300 -0.000001 -0.000001 22.888200 -10.647800 4.086940 6.456720 -0.000001 -0.000000 12.512600 -13.421400 15.482600 12.994200 -0.242716 4.980390 -88.387400 -3.745830 -66.687500 5.348090 -0.000007 -0.000001 -67.056300 -49.655900 -91.752400 24.328600 0.000019 0.000005 16.874900 10.220200 -59.675700 22.291600 -0.000001 0.000005 14.952700 5.332520 -0.859050 12.994500 -0.242716 -4.980390 87.920000 10.793800 -79.025000 -5.348130 -0.000001 -0.000004 -59.199300 33.288500 -9.874150 -24.328900 0.000322 -0.000009 1.403500 4.136820 -18.772300 -22.291500 -0.000108 -0.000004 11.950700 5.399220 -2.912130 -2.192480 -6.469440 -0.000000 -173.750000 -10.099500 3.890890 39.081100 -0.000007 -0.000012 -0.245928 0.428834 29.833900 40.985400 -0.000006 -0.000013 -0.778829 9.193050 -72.547400 11.754300 -0.000000 0.000003 -0.000173 -0.001636 -16.639500 -2.192510 6.469440 -0.000001 172.342000 22.316000 -173.506000 -39.081100 -0.002282 -0.040193 -0.255164 0.444222 30.192900 -40.985400 0.000008 0.000006 4.474170 11.784900 -75.340400 -11.754300 -0.000006 -0.000006 -0.000939 -0.014531 -17.164100
0.000000 0.000000 0.000000 0.000000 0.000000 -0.000000 -3.865480 90.235400 2.870660 91.065500 1.043890 10.803500 15.735700 0.000005 -0.000001 80.464600 82.921700 -78.206900 8.984550 -0.406207 -0.000000 6.249810 -2.368270 4.640180 16.377300 -0.000001 -0.000001 22.995200 -10.673000 4.021050 6.456720 -0.000001 -0.000000 12.520700 -13.376000 15.482900 12.994200 -0.242716 4.980390 -88.417200 -3.681890 -66.718200 5.348090 -0.000007 -0.000001 -67.179800 -49.636300 -91.886700 24.328600 0.000019 0.000005 17.000000 10.315700 -59.641700 22.291600 -0.000001 0.000005 14.880500 5.331360 -0.825079 12.994500 -0.242716 -4.980390 87.915900 10.826300 -79.035600 -5.348130 -0.000001 -0.000004 -59.411200 33.518700 -9.493250 -24.328900 0.000322 -0.000009 1.372220 4.152390 -18.318700 -22.291500 -0.000108 -0.000004 11.871500 5.398770 -2.897030 -2.192480 -6.469440 -0.000000 -173.767000 -10.135000 3.781230 39.081100 -0.000007 -0.000012 -0.245203 0.427223 29.853900 40.985400 -0.000006 -0.000013 -0.758629 9.245930 -72.455700 11.754300 -0.000000 0.000003 -0.000174 -0.001644 -16.639800 -2.192510 6.469440 -0.000001 172.330000 22.418300 -173.606000 -39.081100 -0.002282 -0.040193 -0.258058 0.448493 30.232000 -40.985400 0.000008 0.000006 4.502600 11.822600 -75.275100 -11.754300 -0.000006 -0.000006 -0.000987 -0.015225 -17.192300
